# xmcd
#
# Track frame offsets:
#	150
#	16265
#	36465
#	54747
#	71807
#	89565
#	107707
#	129757
#	141562
#	158450
#	171957
#	189055
#	205752
#	217482
#
# Disc length: 3165 seconds
#
# Revision: 1
# Processed by: cddbd v1.4PL0 Copyright (c) Steve Scherf et al.
# Submitted via: audiograbber 1.81.02
#
DISCID=ce0c5b0e
DTITLE=Tess McKenna - Make Me Wonder
DYEAR=1993
DGENRE=Alternative
TTITLE0=Gippsland Train
TTITLE1=I Won't Say It's Love
TTITLE2=Sincerely
TTITLE3=Angel Saved My Soul
TTITLE4=The End Of A Rope
TTITLE5=Lost And Found
TTITLE6=Make Me Wonder
TTITLE7=Beg, Borrow Or Steal
TTITLE8=Faded Hearts
TTITLE9=Sure As The Stars Shine Through
TTITLE10=Swing Bridge
TTITLE11=Faith And Sympathy
TTITLE12=The One Way
TTITLE13=Comical Life
EXTD=
EXTT0=
EXTT1=
EXTT2=
EXTT3=
EXTT4=
EXTT5=
EXTT6=
EXTT7=
EXTT8=
EXTT9=
EXTT10=
EXTT11=
EXTT12=
EXTT13=
PLAYORDER=
